<mxfile host="app.diagrams.net" modified="2022-07-12T09:29:14.900Z" agent="5.0 (Windows NT 10.0; Win64; x64) AppleWebKit/537.36 (KHTML, like Gecko) Chrome/103.0.5060.114 Safari/537.36" etag="242yQCNZYusvyMYXhcNp" version="20.0.4" type="github">
  <diagram id="3Vl5GRZx4tKKYndAeS8T" name="Page-1">
    <mxGraphModel dx="2903" dy="2191" grid="1" gridSize="10" guides="1" tooltips="1" connect="1" arrows="1" fold="1" page="1" pageScale="1" pageWidth="827" pageHeight="1169" math="0" shadow="0">
      <root>
        <mxCell id="0" />
        <mxCell id="1" parent="0" />
        <mxCell id="DBKgGHqJrymTyB9l0VIw-1" value="" style="ellipse;shape=cloud;whiteSpace=wrap;html=1;" vertex="1" parent="1">
          <mxGeometry x="490" y="-450" width="1010" height="720" as="geometry" />
        </mxCell>
        <mxCell id="DBKgGHqJrymTyB9l0VIw-2" value="" style="shape=image;verticalLabelPosition=bottom;labelBackgroundColor=default;verticalAlign=top;aspect=fixed;imageAspect=0;image=data:image/svg+xml,PHN2ZyB4bWxuczp4bGluaz0iaHR0cDovL3d3dy53My5vcmcvMTk5OS94bGluayIgeG1sbnM9Imh0dHA6Ly93d3cudzMub3JnLzIwMDAvc3ZnIiB3aWR0aD0iMjgyLjIyMjIzbW0iIGhlaWdodD0iODEuOTAzMjY3bW0iIHZpZXdCb3g9IjAgMCAyODIuMjIyMjMgODEuOTAzMjY2IiB2ZXJzaW9uPSIxLjEiIGlkPSJzdmc4MTU5Ij4mI3hhOyAgJiN4YTsgIDxkZWZzIGlkPSJkZWZzODE1MyI+JiN4YTsgICAgPGxpbmVhckdyYWRpZW50IGlkPSJsaW5lYXJHcmFkaWVudDgyNzEiPiYjeGE7ICAgICAgPHN0b3Agc3R5bGU9InN0b3AtY29sb3I6Izc5Nzg3ZDtzdG9wLW9wYWNpdHk6MSIgb2Zmc2V0PSIwIiBpZD0ic3RvcDgyNjciLz4mI3hhOyAgICAgIDxzdG9wIGlkPSJzdG9wODI3NSIgb2Zmc2V0PSIwLjUiIHN0eWxlPSJzdG9wLWNvbG9yOiNlNmU2ZTY7c3RvcC1vcGFjaXR5OjEiLz4mI3hhOyAgICAgIDxzdG9wIHN0eWxlPSJzdG9wLWNvbG9yOiM2YjZkNmE7c3RvcC1vcGFjaXR5OjEiIG9mZnNldD0iMSIgaWQ9InN0b3A4MjY5Ii8+JiN4YTsgICAgPC9saW5lYXJHcmFkaWVudD4mI3hhOyAgICA8bGluZWFyR3JhZGllbnQgaWQ9ImxpbmVhckdyYWRpZW50ODI1MSI+JiN4YTsgICAgICA8c3RvcCBzdHlsZT0ic3RvcC1jb2xvcjojMWMzOTczO3N0b3Atb3BhY2l0eToxIiBvZmZzZXQ9IjAiIGlkPSJzdG9wODI0NyIvPiYjeGE7ICAgICAgPHN0b3AgaWQ9InN0b3A4MjU1IiBvZmZzZXQ9IjAuMzcwODc1MjciIHN0eWxlPSJzdG9wLWNvbG9yOiMxYjZiYWI7c3RvcC1vcGFjaXR5OjEiLz4mI3hhOyAgICAgIDxzdG9wIHN0eWxlPSJzdG9wLWNvbG9yOiM1ZDkzYmM7c3RvcC1vcGFjaXR5OjEiIG9mZnNldD0iMC41NDE1ODYzNCIgaWQ9InN0b3A4MjU3Ii8+JiN4YTsgICAgICA8c3RvcCBzdHlsZT0ic3RvcC1jb2xvcjojMTA3MGEzO3N0b3Atb3BhY2l0eToxIiBvZmZzZXQ9IjEiIGlkPSJzdG9wODI0OSIvPiYjeGE7ICAgIDwvbGluZWFyR3JhZGllbnQ+JiN4YTsgICAgPHN0eWxlIGlkPSJzdHlsZTMxODkiIHR5cGU9InRleHQvY3NzIj4mI3hhOyAgICYjeGE7ICAgIC5maWwxIHtmaWxsOmJsYWNrfSYjeGE7ICAgIC5maWwwIHtmaWxsOiMyMDQ5QTN9JiN4YTsgICAgLmZpbDIge2ZpbGw6d2hpdGV9JiN4YTsgICAmI3hhOyAgPC9zdHlsZT4mI3hhOyAgICA8c3R5bGUgaWQ9InN0eWxlMzE4OS0xIiB0eXBlPSJ0ZXh0L2NzcyI+JiN4YTsgICAmI3hhOyAgICAuZmlsMSB7ZmlsbDpibGFja30mI3hhOyAgICAuZmlsMCB7ZmlsbDojMjA0OUEzfSYjeGE7ICAgIC5maWwyIHtmaWxsOndoaXRlfSYjeGE7ICAgJiN4YTsgIDwvc3R5bGU+JiN4YTsgICAgPGxpbmVhckdyYWRpZW50IGdyYWRpZW50VHJhbnNmb3JtPSJtYXRyaXgoMC4yNjQ1ODMzMywwLDAsMC4yNjQ1ODMzMywtMzI0LjAwODY3LDIzLjA2ODE3KSIgeGxpbms6aHJlZj0iI2xpbmVhckdyYWRpZW50ODI1MSIgaWQ9ImxpbmVhckdyYWRpZW50ODI1MyIgeDE9IjE0ODUuNTAxMiIgeTE9IjcuODg4NjE1MSIgeDI9IjE2NzguMDM4MyIgeTI9IjMwNC42ODYyNSIgZ3JhZGllbnRVbml0cz0idXNlclNwYWNlT25Vc2UiLz4mI3hhOyAgICA8bGluZWFyR3JhZGllbnQgZ3JhZGllbnRUcmFuc2Zvcm09Im1hdHJpeCgwLjI2NDU4MzMzLDAsMCwwLjI2NDU4MzMzLC0zMjQuMDA4NjcsMjMuMDY4MTcpIiB4bGluazpocmVmPSIjbGluZWFyR3JhZGllbnQ4MjcxIiBpZD0ibGluZWFyR3JhZGllbnQ4MjczIiB4MT0iMTU2Ny43MTY0IiB5MT0iNTU2Ljg4ODkyIiB4Mj0iMTY0MC42MDQ0IiB5Mj0iODEzLjg4NzA4IiBncmFkaWVudFVuaXRzPSJ1c2VyU3BhY2VPblVzZSIvPiYjeGE7ICA8L2RlZnM+JiN4YTsgIDxtZXRhZGF0YSBpZD0ibWV0YWRhdGE4MTU2Ij4mI3hhOyAgICAmI3hhOyAgICAgICYjeGE7ICAgICAgICBpbWFnZS9zdmcreG1sJiN4YTsgICAgICAgICYjeGE7ICAgICAgICAmI3hhOyAgICAgICYjeGE7ICAgICYjeGE7ICA8L21ldGFkYXRhPiYjeGE7ICA8cGF0aCBpZD0icGF0aDcyOTEiIGQ9Im0gNjUuMTg2MjE5LDEyLjM0NzQ2MyAtMTUuNTMwOTExLDMxLjI3OTI5NiAyNy4zNDMzMTEsMzEuNjkxMjUgLTUwLjc0OTE1NCw1Ljc2MTM0IDc4Ljc0ODM5NSwwLjgyMzkyIC0zOS44MTE2NDEsLTY5LjU1NTgwNiB6IiBzdHlsZT0iZmlsbDojMDM1YmRhO2ZpbGwtb3BhY2l0eToxO2ZpbGwtcnVsZTpldmVub2RkO3N0cm9rZTpub25lO3N0cm9rZS13aWR0aDoxcHg7c3Ryb2tlLWxpbmVjYXA6YnV0dDtzdHJva2UtbGluZWpvaW46bWl0ZXI7c3Ryb2tlLW9wYWNpdHk6MSIvPiYjeGE7ICA8cGF0aCBpZD0icGF0aDcyOTMiIGQ9Ik0gNjIuMTIzNjQsMCAyNi40Njg0MiwyOS44MzkxODQgMCw3NC40OTQ5NTkgMjIuNTMwOTU0LDcyLjIzMDkzOSA2Mi4xMjM2NCwwIFoiIHN0eWxlPSJmaWxsOiMwMzViZGE7ZmlsbC1vcGFjaXR5OjE7ZmlsbC1ydWxlOmV2ZW5vZGQ7c3Ryb2tlOm5vbmU7c3Ryb2tlLXdpZHRoOjFweDtzdHJva2UtbGluZWNhcDpidXR0O3N0cm9rZS1saW5lam9pbjptaXRlcjtzdHJva2Utb3BhY2l0eToxIi8+JiN4YTsgIDxwYXRoIGlkPSJ0ZXh0NzI5NSIgZD0ibSAxMzQuNzYyNzgsMzEuNTgxMjI5IC0xNy4wNTQyNCw0MS44MTg2OSA1Ljc5ODU5LDAgNC40MzQzMywtMTEuNzIzMzUgMTguODUxNzQsMCA0LjcxMzE3LDExLjcyMzM1IDUuNzY2NzgsMCAtMTcuMTE2LC00MS44MTg2OSAtNS4zOTQzNywwIHogbSAyLjU0MjMzLDUuMDczODQgMC4xMjM1MSwwIGMgMC4yMjczOCwxLjI4MzE0MiAwLjQ1NDc1LDIuMjE2ODY5IDAuNjgyMTQsMi44MDAxMTkgbCA2Ljk3NjY1LDE3LjgxODMwMiAtMTUuNDEwMjEsMCA2LjkxNDksLTE3LjgxODMwMiBjIDAuMjY4NzIsLTAuNjgwNDU1IDAuNTA2MywtMS42MTQxODMgMC43MTMwMSwtMi44MDAxMTkgeiBtIDEzMS44NjMwMiw2LjE4Mjk3MyBjIC00LjE1NDg3LDAgLTcuNjM3ODEsMS40Njc0MDYgLTEwLjQ0OTA3LDQuNDAzMDggLTIuNzkwNTksMi45MTYyMzUgLTQuMTg1NDMsNi42OTgzMDYgLTQuMTg1NDMsMTEuMzQ0ODM5IDAsNC45MTg3MTkgMS4yODE2Myw4LjczODM0MiAzLjg0NDgzLDExLjQ2MDE2MyAyLjU2MzIxLDIuNzAyMzc1IDYuMDg2OTgsNC4wNTM2MTUgMTAuNTcyNTksNC4wNTM2MTUgNC41ODg5NiwwIDguMjc4ODYsLTAuOTUyMDcgMTEuMDY5NDQsLTIuODU3MzQyIGwgMCwtNC40OTExMSBjIC0yLjk5NzI5LDIuMjE2MzM4IC02LjI4MzQ5LDMuMzIzODg1IC05Ljg1OTU3LDMuMzIzODg1IC0zLjE4MzMzLDAgLTUuNjg0NDEsLTAuOTA0MDMxIC03LjUwMzQ2LC0yLjcxMjA5NSAtMS44MTkwNSwtMS44MDgwNjkgLTIuNzcwMjksLTQuMzc0Mjg1IC0yLjg1Mjk4LC03LjY5ODc5MiBsIDIyLjQxNzc0LDAgMCwtMi41MDc4NzIgYyAwLC00LjQ5MTAwMSAtMS4xMzY4NiwtNy45OTk2NzEgLTMuNDEwNjYsLTEwLjUyNzA3MyAtMi4yNzM4MSwtMi41Mjc0MDQgLTUuNDg4NTYsLTMuNzkxMjk4IC05LjY0MzQzLC0zLjc5MTI5OCB6IG0gLTIyLjcxODA5LDAuMTc1MTcyIGMgLTEuODM5NzIsMCAtMy41MDM3LDAuNTkzMDc5IC00Ljk5MjAyLDEuNzc5MDE1IC0xLjQ4ODMxLDEuMTY2NDk0IC0yLjU5MzYsMi43OTg5NzkgLTMuMzE3MDksNC44OTg2NjggbCAtMC4xMjQ0NSwwIDAsLTYuMTUzMDQ4IC01LjA4NDY0LDAgMCwyOS44NjIwNyA1LjA4NDY0LDAgMCwtMTUuMjIyMzk3IGMgMCwtMy4zMjQ1MTIgMC43MjM4OCwtNS45NDkyNDcgMi4xNzA4NSwtNy44NzM5NjMgMS40Njc2NCwtMS45MjQ3MTYgMy4yODY2MSwtMi44ODcyNjYgNS40NTcwNiwtMi44ODcyNjYgMS42NzQzNSwwIDIuOTU1OTgsMC4zMjA1NTcgMy44NDQ4MywwLjk2MjEzIGwgMCwtNC45NTc2NDYgYyAtMC43MDI4MSwtMC4yNzIxODQgLTEuNzE2MjQsLTAuNDA3NTYzIC0zLjAzOTE4LC0wLjQwNzU2MyB6IG0gLTg0LjAwODAyLDAuNTI0NjM1IDAsNC4wODI2NjggMTcuMDIyNDMsMCAtMTguNzg5OTksMjQuMjkyNjQ2IDAsMS40ODY3NTYgMjYuMDc2MzYsMCAwLC00LjA4MjY1OCAtMTguNjAzNzgsMCAxOC43ODk5OCwtMjQuNDA4ODM4IDAsLTEuMzcwNTc0IC0yNC40OTUsMCB6IG0gMzIuMTQzNSwwIDAsMTcuODQ3MzUxIGMgMCw4LjQ3NjUyNCAzLjc4MzY0LDEyLjcxNDUzOSAxMS4zNDkyMiwxMi43MTQ1MzkgNC40MjM1OSwwIDcuNjg5MzcsLTEuODA4MDcgOS43OTc4MiwtNS40MjQxOTUgbCAwLjEyMzUxLDAgMCw0LjcyNDM3NSA1LjA4NTU4LDAgMCwtMjkuODYyMDcgLTUuMDg1NTgsMCAwLDE3LjIwNTYzOCBjIDAsMi43ODAxNDQgLTAuODA1NTQsNS4wMzU0MDggLTIuNDE3ODcsNi43NjU3MSAtMS41OTE2NywxLjcxMDg1OCAtMy42Mjc4LDIuNTY1OTc1IC02LjEwODMyLDIuNTY1OTc1IC01LjEyNjQsMCAtNy42ODk2NiwtMy4xNDg4MTIgLTcuNjg5NjYsLTkuNDQ3ODc5IGwgMCwtMTcuMDg5NDQ0IC01LjA1NDcsMCB6IG0gNzQuNDg5OTgsMy4zMjQ3NiBjIDIuNDgwNTEsMCA0LjQxMzYzLDAuNzY3NzY0IDUuNzk4NTksMi4zMDM2NDggMS40MDU2MywxLjUzNTg4OCAyLjExODM2LDMuNjgzNzExIDIuMTM5MDMsNi40NDQ0MTIgbCAtMTcuMTQ2ODgsMCBjIDAuMzkyNzUsLTIuNjA1MTcxIDEuNDI2NTksLTQuNzE0NTY0IDMuMTAwOTQsLTYuMzI4MjE0IDEuNjc0MzUsLTEuNjEzNjUxIDMuNzEwNDgsLTIuNDE5ODQ2IDYuMTA4MzIsLTIuNDE5ODQ2IHoiIHN0eWxlPSJmb250LXN0eWxlOm5vcm1hbDtmb250LXdlaWdodDpub3JtYWw7Zm9udC1zaXplOjM3LjQwMzQ1MDAxcHg7bGluZS1oZWlnaHQ6MTI1JTtmb250LWZhbWlseTpzYW5zLXNlcmlmO2xldHRlci1zcGFjaW5nOjAuOTk4ODc4NDhweDt3b3JkLXNwYWNpbmc6MHB4O2ZpbGw6IzAzNWJkYTtmaWxsLW9wYWNpdHk6MTtzdHJva2U6bm9uZTtzdHJva2Utd2lkdGg6MXB4O3N0cm9rZS1saW5lY2FwOmJ1dHQ7c3Ryb2tlLWxpbmVqb2luOm1pdGVyO3N0cm9rZS1vcGFjaXR5OjEiLz4mI3hhOzwvc3ZnPg==;" vertex="1" parent="1">
          <mxGeometry x="860" y="-270" width="162" height="47.11" as="geometry" />
        </mxCell>
        <mxCell id="DBKgGHqJrymTyB9l0VIw-9" style="edgeStyle=orthogonalEdgeStyle;rounded=0;orthogonalLoop=1;jettySize=auto;html=1;exitX=1;exitY=0.5;exitDx=0;exitDy=0;entryX=0;entryY=0.5;entryDx=0;entryDy=0;" edge="1" parent="1" source="DBKgGHqJrymTyB9l0VIw-4" target="DBKgGHqJrymTyB9l0VIw-8">
          <mxGeometry relative="1" as="geometry" />
        </mxCell>
        <mxCell id="DBKgGHqJrymTyB9l0VIw-4" value="" style="shape=image;verticalLabelPosition=bottom;labelBackgroundColor=default;verticalAlign=top;aspect=fixed;imageAspect=0;image=data:image/svg+xml,PHN2ZyB4bWxucz0iaHR0cDovL3d3dy53My5vcmcvMjAwMC9zdmciIHZpZXdCb3g9IjAgMCA1NjAgNDAwIiBzdHJva2UtbWl0ZXJsaW1pdD0iMS40MTQyMSIgc3Ryb2tlLWxpbmVqb2luPSJyb3VuZCIgZmlsbC1ydWxlPSJldmVub2RkIiBjbGlwLXJ1bGU9ImV2ZW5vZGQiPjxwYXRoIGZpbGwtcnVsZT0ibm9uemVybyIgZmlsbD0iIzIxYTM2NiIgZD0ibTMwNy41IDEwMy43NWgtNzMuMzM0Yy01LjAyOCAwLTkuMTY3IDQuMTM5LTkuMTY3IDkuMTY2djM4Ljk1OWw4Mi41MDEgNDguMTI1IDQxLjI1IDE3LjQwNSA0MS4yNS0xNy40MDV2LTQ4LjEyNXoiLz48cGF0aCBmaWxsPSIjMTA3YzQxIiBkPSJtMjI0Ljk5OSAxNTEuODc1aDgyLjUwMXY0OC4xMjVoLTgyLjUwMXoiLz48cGF0aCBmaWxsLXJ1bGU9Im5vbnplcm8iIGZpbGw9IiMzM2M0ODEiIGQ9Im0zODAuODM0IDEwMy43NWgtNzMuMzM0djQ4LjEyNWg4Mi41di0zOC45NTljMC01LjAyNy00LjEzOS05LjE2Ni05LjE2Ni05LjE2NnoiLz48cGF0aCBmaWxsLXJ1bGU9Im5vbnplcm8iIGZpbGw9IiMxODVjMzciIGQ9Im0zMDcuNSAyMDBoLTgyLjUwMXY4Ny4wODRjMCA1LjAyNyA0LjEzOSA5LjE2NiA5LjE2NyA5LjE2NmgxNDYuNjY4YzUuMDI3IDAgOS4xNjYtNC4xMzkgOS4xNjYtOS4xNjZ2LTM4Ljk1OXoiLz48cGF0aCBmaWxsPSIjMTA3YzQxIiBkPSJtMzA3LjUgMjAwaDgyLjV2NDguMTI1aC04Mi41eiIvPjxnIGZpbGwtcnVsZT0ibm9uemVybyI+PHBhdGggZmlsbC1vcGFjaXR5PSIuMDk0MTE4IiBkPSJtMjg0LjU4NCAxMzguMTI1aC01OS41ODR2MTMwLjYyNWg1OS41ODRjNS4wMjItLjAxNCA5LjE1Mi00LjE0NCA5LjE2Ni05LjE2NnYtMTEyLjI5M2MtLjAxNC01LjAyMi00LjE0NC05LjE1Mi05LjE2Ni05LjE2NnoiLz48ZyBmaWxsLW9wYWNpdHk9Ii4yIj48cGF0aCBkPSJtMjc3LjcwOSAxNDVoLTUyLjcwOXYxMzAuNjI1aDUyLjcwOWM1LjAyMi0uMDE0IDkuMTUyLTQuMTQ0IDkuMTY2LTkuMTY2di0xMTIuMjkzYy0uMDE0LTUuMDIyLTQuMTQ0LTkuMTUyLTkuMTY2LTkuMTY2eiIvPjxwYXRoIGQ9Im0yNzcuNzA5IDE0NWgtNTIuNzA5djExNi44NzVoNTIuNzA5YzUuMDIyLS4wMTQgOS4xNTItNC4xNDQgOS4xNjYtOS4xNjZ2LTk4LjU0M2MtLjAxNC01LjAyMi00LjE0NC05LjE1Mi05LjE2Ni05LjE2NnoiLz48cGF0aCBkPSJtMjcwLjgzNCAxNDVoLTQ1LjgzNHYxMTYuODc1aDQ1LjgzNGM1LjAyMi0uMDE0IDkuMTUyLTQuMTQ0IDkuMTY2LTkuMTY2di05OC41NDNjLS4wMTQtNS4wMjItNC4xNDQtOS4xNTItOS4xNjYtOS4xNjZ6Ii8+PC9nPjxwYXRoIGZpbGw9IiMxMDdjNDEiIGQ9Im0xNzkuMTY2IDE0NWg5MS42NjhjNS4wMjcgMCA5LjE2NiA0LjEzOSA5LjE2NiA5LjE2NnY5MS42NjhjMCA1LjAyNy00LjEzOCA5LjE2Ni05LjE2NiA5LjE2NmgtOTEuNjY4Yy01LjAyNyAwLTkuMTY2LTQuMTM5LTkuMTY2LTkuMTY2di05MS42NjhjMC01LjAyNyA0LjEzOS05LjE2NiA5LjE2Ni05LjE2NnoiLz48cGF0aCBmaWxsPSIjZmZmIiBkPSJtMTk0LjI5MiAyMzQuMzc1IDIyLjI0Ni0zNC40NzEtMjAuMzc2LTM0LjI3OWgxNi4zOTdsMTEuMTIzIDIxLjkwOWMxLjAyMiAyLjA3OSAxLjcyNSAzLjYzIDIuMTA5IDQuNjUyaC4xNDRjLjczNC0xLjY2MSAxLjUwMi0zLjI3NiAyLjMwMi00Ljg0M2wxMS44ODktMjEuNzE4aDE1LjA1NWwtMjAuOTA0IDM0LjA4NyAyMS40MzEgMzQuNjYzaC0xNi4wMTRsLTEyLjg0OS0yNC4wNjdjLS42MDUtMS4wMjMtMS4xMTgtMi4wOTktMS41MzQtMy4yMTJoLS4xOTFjLS4zNzYgMS4wOTEtLjg3NCAyLjEzNi0xLjQ4NyAzLjExNWwtMTMuMjMyIDI0LjE2NHoiLz48L2c+PHBhdGggZmlsbD0ibm9uZSIgZD0ibTE3MCA5MGgyMjB2MjIwaC0yMjB6Ii8+PC9zdmc+;" vertex="1" parent="1">
          <mxGeometry x="-420" y="-90" width="266.31" height="190" as="geometry" />
        </mxCell>
        <mxCell id="DBKgGHqJrymTyB9l0VIw-8" value="" style="shape=image;verticalLabelPosition=bottom;labelBackgroundColor=default;verticalAlign=top;aspect=fixed;imageAspect=0;image=data:image/png,iVBORw0KGgoAAAANSUhEUgAAADAAAAAwCAYAAABXAvmHAAAQ9UlEQVR4Xp1aB5RW1RGeV/6+Cwu79GIHpaus2IhgQESx7UGwK6iQWBPRWKLHI4mJxuiJJbEdbKgYRFFUiqiIKARFRRQ4ihQpC7vU3f3r+1/JN/Pe+/f9W2T1HvbAvvfuvTNzZ775Zi4K/Yrh2KZKinYlkf0kkRqxM3vJ2vUFmdXLyd79LdmpHeTgmZ1Pkko2UaQ9KZEKUhPdSOs8hLRuw0jvOnSzEqt4BNvXOI6zWVXVVb9CFFJ+6STbcVRMKrHrtjxmVX92ZX7bEjK3fUKUqSXHypGjKKQoIejlEClhLA8FHPzYDjlOnhSHn0dIKakgrfdICvcYQVr3U65R2x/6Oj5OKYpi/RKZfpECsJTiZPYMzHz+4DfGuhdg5X2kKho54TipagjC49+OBau7A9/L3xBK/oYa+EYlDQo5dp5sI4kHFimxzhQdOJkix0+7GKfyJr432qpEmxWwrXzY+O752cYXD55n1W8hVS8lJxQh27ZJU9i6rrAtDbyG4I1vGhWCJ+KlYplQpp5wChSuvGNZpP9V41QtVN8WJdqkgLV33aHppdM2m1veh1eUEGlRuIJVEJqFV0iDqW2xsn8CbHMFp8JK+kIrsL6FU2j8xj0hh93OzIgiocPHUWz4/Wdo5QM+xDtesnXjHExLY8PcwanFU1dTbj8p0Y4FwWVT3+oOxGl1n2KVyPtWlPZcy3UunAaMwBHmZA9I4MdGPz0letQFz/5qBXJrZw5Mvz95jRoqIUdDQNo46iILB5aGYA7BnzmIm7hMUIBiwYvdqmAQVYdbGWSaSSodO2tCuO94DvCW3bO1FxC+T3rJjd+zXWxVE/QosnozZ3FdxxfQV6J4jvfeczd/76BRLOyjiUvBEIgNzN8bO/3xa8P9LpvbYny19NDY8Eav9HsXb1X0BNkaFrIRKr6b4G8b7iL47ug/4zrFKzdVJPi2oCxODvhUcC1WQrUt5JOGZPzs2aMifapWNpW3WRDnd69Rkq+PSpOdixKgkS3fqtscLICavW/jSoGYkhmOCftFvim96KNT9I4DUsFlg2Agz7PLbn+RcnVRBUjjD/6oMeCaS83Y7wbiwUaz7SRegoNXUTgJekNmsCy5/YMzy+65tekORStmv35yMKDycjXWQdBGsiYG+3UjzruCBnGfoTIInoVN2JItDjgKx1QLwe7HUZFSAA9GwPyPc++FjCOD7wouZDXsDCdnn7oRmbYnKfBtFaiC7KMg/bco3MGM3eR9c2FbcKeW4BhyIItADsQdXImi5R+0v3rj6KIT4l+MVQ9dBn7TU5IU43OugRTjAPTQgUKBUAlY1eHg/pkRPDlLcKAxQBVCfHl5oOBGXi4RZfn0sbdjpElJ74OH5jkOCDKOSn18y9QiBcz9m8qy61+aoYbbue6SS1PoxHsodtJ9ZGXroUjGXYw3DCQsXyB5jvekhl0+xDAIYcEw5UfQhIke1rUhCH/L6OaPpjTD0VwPoNRu0rufTCVV75DS/nCifAo8sIyM9S88YB3YWMbzdSZo+fUzxzExcxJdOVgoVNGPYsffjOCJUwLUN/vJ7WTVgu3idycUE3oA8QRKwZFgHQCDZeEPiJxsHgb5NBCMsJgWIc3AxuXHkBrrSPaBDWTXb0cmQH4JJyBnVLKvDwKg6iCJB0gJxcGLplFs2J2SleOZ3ZRaOIkoBA6Wrikzty/rhUkHsBupxtaPpyhIVjKwgDbkeoRBAkIZFOo1kvSJoMzrZ1NmzTNk7l2NBANazJ/itNRoe9K6nCQcX+3QV36XzB0vp/zaFyn7xeOk/+Z+ilX+yaUKqWoyqpeRXf0p5TcvFGUY6+E0yONwMSgZPfZ60gdMIrXTIJeKs6WPvBD7PEn2/nVw6RDldywZCuOvVex0TbeGWSdXK7l9QrrUsj4Un7iUND3mKsQQ6fu9k6N89QqyULg4Zo7Ukq6k9RhOekV/ORFxCv6eCVzt15R86zyKHHuzWFJBPQDuje/w2vMdAAaZKITsug2wKrhWvAvph44mrf0R8hHDs+JTFLhddvl9lF35F3EjJVr2TWLip2fp5q4vT3Tga04IFs/upFCfKrhoDIoDutgPGSJ5R6R1DiK95wg5laaDYdfGHBUuY+9bTw1vjqXosD9DgRvBMl2/F+E9FgtcgbUrKHTYGDzlnwDk8jeIekVzGS4iSLYLHz2Bst88IUaCzP1hpMGqWb1iLDisC5eJLhQ64jzXQsI2AygD3xaiRlCE/RQ/rBQJzIo/ifDmloWUnDOGYiP+JcLLdzpXaDyX14X3S8BDOD4VzvQ4+cKa7E78jefRrmL44UKpY18K97sCJKGBT0eH7MNU1LCVEnS5OtKPvoi0jscU3ICLjeamBvwxW2QhOGDB40VITaX8hjmUfHci02BY6yLvFDnMeEnmTuyOgazNwQtJGar9Nblic0cLSRCwHeX4LOkmJ2nu+XaIigJ8iBQegNDowCkFeV3bN18kmIHl37Aib25uXUKZpbdRadUCuMXYRuGlFoYvQ0HXHd2s7dKPxuGbqlXKInMhZ7vDKHRU1R+cfA4wW3OmzsWDg0qIhdfK+xWs39z07pPgBgBCcQVz+8eU+eA6ip8zG0hR2Sg8C8muYhqU/fwfZNZtlHpY63k6hQddVbRXm0pDb//okJuvtn54M0OpHTHVNuqkTNT7X+EedcAyrVW5hVNgH8YwvnyM1B6nks7Cwxg8OKDZ2paVotTb55JVs4rix91AoX6X4/t/UmbJTW6c8XdtHYyGgHat7LCBeu/RMSu1E6HFiyAYzbUvYTFOPlx5ed0EkSSghgQd5wBvY49iKN0qyd76IYRHQvOoCPu1uWsFpZ/rh7gaSPEL3gGuVwImx1Di0s8pD5fLrvy7uB/v23pLwNNO4BnBjhxg1XxFxs7lkm+UAzOOcBRkYW5C6V2GUWzkI6R2Geq2O7hy8nmQ+DL8Hb5cKAuhjBTjsGJ20SQy63+i8JFVoqS9e400t0L9J1Oo7/hCPuF0xSfDyqbfrqJQz+EUAW0pGM+XN1AzMwBIDJkNlFn5EOXWPEmKCY6ERplS/3KlY+/7HikaiQtIxO4UPe1hwNVlHmJ4gYyTMrP7yVx+L+V3riK99wiKnnQvLAgqwLUwLJlb/RRZm+aRrUfRWTgHa1zqnqiX3PwDVYWo4RTTeyk5ezhpR15AsVPvF0MIuokvs8NzInafOakaSi+8ioxNC0lDU4z7Ski625Xk3PPr8tsWtCP0eQTnGdtz9aQPuoYiIx8mTUOC4/Wy+wiVGikVAwBl11H207tJLe1F8TOf9wTkMCxGLdlcCGAB1Bu9nU+Up4B7pWadTOHBv6fQsTdBbnZRrgRZAYAE5ppwz/QHU8mp3wk6XeqWnUYDaYeMuVRFr3KOInGEzZFQGDWceAUy3jOUnjOWUGJKYCZx3HrfC6lk7EukdzuBEuNeI2vPl5T/bgYy7zqZL77MQenhvVhThG9eBLmJDa6BQiVx8XLK/TiPcqsewmM+Mc7cbh2eXTGd0m+dA3esFeHllFg5yBqpGLJUMTbNvyT97kWvOHq4UIFJWccbwzp6SQ+sEwa5uopiJ9wpyiigGkgilJo9krROQ8hObqMQu8HwB9ygF8sVn4ggFz9r0t1wk6VKVnIHpf8L4gg0jJ14t5x4+sMpZHz/Bry7E+d/Tz6vWWYZdR1urC/Tta5DViiJTmjO7oGvcUCCEvDebEWeiIXDg64FmwSttbIiPG+WQcaNnjKdIoN/R3YaVHfOGWR0Bcp0P0l6nWIAj8Dx+Rbyh9cQ838XvRBDGgyVmLCYGl47jShdQ/na1UIa1Xg3LOM1hT3Div/HOyFo0I5UY922M0FzUCxws6SouGBMD3eiyNDbXEIHiORgyiy4nCIn3AHhr3NZKVikVjEQcXEXsvE0Ss87j2j/RlmL3UpiKNA7Fej2osFtK+JDxJ5aeghFB08BvD5B9t7vsG45jAC3xFzuF7ErcluSZVV7nv6Y5/jgWj1/c4sT6F/6kcYNLaRPsrajfc7TYZnkG2dQFAjFpKrgTsjEdqaG2l24lBJnzSKlQz/Kfvus13FwiVgzilBQyGObHlxbgF41jiDWgIock97gZhe7mtQUiIPSMc+CS7iwYeo9Tn2FCwlu58lGwv/5PGB4uFUWVk3Nv5iSL1e6/B/Y7gufR0IxQBMSZ7yAWwNUdBjcKjc3vUvpBZdQ9rO7karRRm8yCqfAilhpF23AZPPrX4GbIkH5LLfJPJVljHWe7j/mTOxoZUfURvpN/pvQVCkXwe0l3jhxAYNhwfyPb5PTsA2uAr7EA7HARYvx3YsUHfUUKaUIds9dsl89LiVk6KjxqIPrKb3kFjFIcAhaCd1QKD1/MjXMPI7S710icSZI2KRd794toFBCo6HDdbX3FhTw/4HLhX+rZYfUKWbWLca9KqxwSQG2SigXjS8fJeOnRWRuXoAa9XKKg96q7XpDmJwkrfTi68kBaYudPYv0o6ooPuo/8Nl6snavdbfiLO3lBy6YrJ8+IgtrWft/EMH5xN09ixUWz8AeuEM4N2gIL+1hbknnXZHjbp2QWXLDIkV3M50kNkEN+J5QYtQN8PXMvPFCPbTy/kTlR3toE0EQ30EmqrHSC3GPIPOY/8Oagl4RVyhQD2vjW5TZiE4DN6vWzwQ4cFcjUUyx0XdlT+CetwALjKOk9+Ta31D3TlCBAou1TQvIp6KOPWe+uWXRmby4HDEbLcBLOIwcucjAgnYG9e7tFO0zgTKrnwb8VVN8zHMipAx8l34XdKJ9b1CFB93kBGVS8yaSgcSlhEJCyMRl4LOc2ETYQIPL7w9xTurwx3wz1t3sgVm7pk/DnFHfKzgukjsB9yj97jLnHW5SSYDzXRdDLazrpOooUTUXCe18t9RE7KTeQGEDoUsumA+e9Bg5yZ1k7lwJfP8MrZJysTjXB0wNeFiQnq+rimLFoze4n7gHvv/Xopd8MM0edBr4Y+K3T53u5MH23P584ykwm/aEl5NhTObYYAodQVMLOUJ62Sz8YnAXxAwLb+1Zg47CdMqtfECuY+0I5kgdDrAIEOmg8H5+4JYLaoq3WxJeDNtUAc9lNOOH18/KLp46j3/3LziC7hTs97vQi9sbvR3F+pxPVqoWqPUWhfsgVoBO1oa5sP4uJEX0i0Rw38puf7SoS8rxxg0zdjc32F8tu37/pS3J2aoCnqA6AuyK1KKrZxSumLgwb+UuTG5UuH/JmM8nA+sr2ToBAy0MEoaOhVvttdaxDojoXTEBKF6F37cqPM8ooFBTDaG5iQB6MREqteEOz3PRQ5zsvDZI08yqCu9B8KLXw4HHR++gJcj3yNLHEas3Ch90TX9v321A5Gwn0uEVCO/WuT8zDlpLY2MNjdShmU9u/R+7hQqhCtesjBxo4gavUVs9apwQ85mg/Qv3acKHoDwyMto7W8N9L5lWMu7VOQcT/mddKDiZlbCtXAdz3cxXUceOtpKbSQuVuTeXUkcge3qiSXebu9FFu7te7seNnJD0/d1nTGHkortdz9roCXeNjwyauqwtwrdZATcmBDyjKCwq8V8Nlhrr0ATwKDh3kjmDuuzJuwCU3o/XHPCQzK8zmOc47GK5FDAIgQr6HRkwaVqo8taXwf1RubR9HNSFmi4FRWB2tQwXDVcAzx8ytoIK7FjKvUr5zx7c13f/swewBDc9chJAKNXivIogllZjBK32LqT2GkGRXqd9gP/scRdaJV+0XezGL3+xAv5UWBfQQkijFEdB0z9fu2qSvWPFOGf3Gt1CC91BP5/pBg811A5WBrcv6Y67h+Prle7DHg11OXaGluj8068ROjjn/zb8VJBjwymHAAAAAElFTkSuQmCC;" vertex="1" parent="1">
          <mxGeometry x="60" y="-55" width="120" height="120" as="geometry" />
        </mxCell>
        <mxCell id="DBKgGHqJrymTyB9l0VIw-12" value="" style="curved=1;endArrow=classic;html=1;rounded=0;entryX=0;entryY=0.5;entryDx=0;entryDy=0;exitX=1;exitY=0.5;exitDx=0;exitDy=0;" edge="1" parent="1" source="DBKgGHqJrymTyB9l0VIw-8" target="DBKgGHqJrymTyB9l0VIw-25">
          <mxGeometry width="50" height="50" relative="1" as="geometry">
            <mxPoint x="170" y="150" as="sourcePoint" />
            <mxPoint x="540" y="120" as="targetPoint" />
            <Array as="points">
              <mxPoint x="540" y="170" />
              <mxPoint x="270" y="-120" />
            </Array>
          </mxGeometry>
        </mxCell>
        <mxCell id="DBKgGHqJrymTyB9l0VIw-14" style="edgeStyle=orthogonalEdgeStyle;rounded=0;orthogonalLoop=1;jettySize=auto;html=1;exitX=0.5;exitY=1;exitDx=0;exitDy=0;" edge="1" parent="1" source="DBKgGHqJrymTyB9l0VIw-2" target="DBKgGHqJrymTyB9l0VIw-2">
          <mxGeometry relative="1" as="geometry" />
        </mxCell>
        <mxCell id="DBKgGHqJrymTyB9l0VIw-17" value="" style="shape=cylinder3;whiteSpace=wrap;html=1;boundedLbl=1;backgroundOutline=1;size=15;" vertex="1" parent="1">
          <mxGeometry x="1176" y="-110" width="130" height="170" as="geometry" />
        </mxCell>
        <mxCell id="DBKgGHqJrymTyB9l0VIw-16" value="" style="shape=image;verticalLabelPosition=bottom;labelBackgroundColor=default;verticalAlign=top;aspect=fixed;imageAspect=0;image=data:image/svg+xml,PHN2ZyB4bWxuczp4bGluaz0iaHR0cDovL3d3dy53My5vcmcvMTk5OS94bGluayIgeG1sbnM9Imh0dHA6Ly93d3cudzMub3JnLzIwMDAvc3ZnIiBzdHJva2UtbGluZWpvaW49InJvdW5kIiBzdHJva2UtbGluZWNhcD0icm91bmQiIHN0cm9rZT0iIzAwMCIgZmlsbC1ydWxlPSJldmVub2RkIiBmaWxsPSIjZmZmIiB2aWV3Qm94PSIwIDAgNjEgODEiPjx1c2UgeT0iLjUiIHg9Ii41IiB4bGluazpocmVmPSIjQSIvPjxzeW1ib2wgb3ZlcmZsb3c9InZpc2libGUiIGlkPSJBIj48ZyBzdHJva2U9Im5vbmUiIGZpbGw9IiMwMDcyYzYiPjxwYXRoIGQ9Ik0wIDEwLjkyOXY1OC4xNEMwIDc1LjEwNiAxMy40MzIgODAgMzAgODBWMTAuOTI5SDB6Ii8+PHVzZSB4bGluazpocmVmPSIjQyIvPjwvZz48dXNlIHN0cm9rZT0ibm9uZSIgb3BhY2l0eT0iLjE1IiB4bGluazpocmVmPSIjQyIvPjxwYXRoIHN0cm9rZT0ibm9uZSIgZD0iTTYwIDEwLjkyOWMwIDYuMDM2LTEzLjQzMiAxMC45MjktMzAgMTAuOTI5UzAgMTYuOTY1IDAgMTAuOTI5IDEzLjQzMiAwIDMwIDBzMzAgNC44OTMgMzAgMTAuOTI5Ii8+PHBhdGggc3Ryb2tlPSJub25lIiBmaWxsPSIjN2ZiYTAwIiBkPSJNNTMuODY2IDEwLjI5OWMwIDMuOTg1LTEwLjY4NSA3LjIxMS0yMy44NjYgNy4yMTFTNi4xMzIgMTQuMjg0IDYuMTMyIDEwLjI5OSAxNi44MTkgMy4wODggMzAgMy4wODhzMjMuODY2IDMuMjI4IDIzLjg2NiA3LjIxMSIvPjxwYXRoIHN0cm9rZT0ibm9uZSIgZmlsbD0iI2I4ZDQzMiIgZD0iTTQ4Ljg2NyAxNC43MDdjMy4xMjQtMS4yMTkgNS4wMDItMi43NDUgNS4wMDItNC40MDRDNTMuODY4IDYuMzE4IDQzLjE4MyAzLjA5IDMwIDMuMDlTNi4xMzQgNi4zMTggNi4xMzQgMTAuMzAzYzAgMS42NTggMS44NzcgMy4xODUgNS4wMDIgNC40MDQgNC4zNjMtMS43MDQgMTEuMTgyLTIuODAzIDE4Ljg2NS0yLjgwM3MxNC41IDEuMDk5IDE4Ljg2NiAyLjgwMyIvPjxwYXRoIHN0cm9rZT0ibm9uZSIgZD0iTTIwLjQ3MiA1MS4yODdjMCAxLjgwNy0uNjUxIDMuMjA2LTEuOTU1IDQuMTk3cy0zLjEwMiAxLjQ4OC01LjM5OSAxLjQ4OGMtMS45NTQgMC0zLjU4Ny0uMzU0LTQuODk5LTEuMDYzdi00LjI1MWMxLjUxNCAxLjI5MyAzLjE4MiAxLjk0IDUuMDA0IDEuOTQuODggMCAxLjU2MS0uMTc3IDIuMDQxLS41MzJzLjcyLS44MjMuNzItMS40MDljMC0uNTc1LS4yMzEtMS4wNzUtLjY5My0xLjVzLTEuNDAyLS45NzQtMi44MTktMS42NDdjLTIuODg4LTEuMzYyLTQuMzMxLTMuMjI0LTQuMzMxLTUuNTc3IDAtMS43MDguNjI5LTMuMDc4IDEuODg5LTQuMTFzMi45MzEtMS41NDcgNS4wMTYtMS41NDdjMS44NDkgMCAzLjM3OS4yNDUgNC41OTYuNzMxdjMuOTcxYy0xLjI3Ni0uODg2LTIuNzI5LTEuMzI4LTQuMzU3LTEuMzI4LS44MTggMC0xLjQ2NS4xNzQtMS45NC41MjNhMS42NSAxLjY1IDAgMCAwLS43MTIgMS40MDFjMCAuNjAyLjE5MSAxLjA5Ni41NzUgMS40ODFzMS4xNjguODYxIDIuMzU2IDEuNDI4YzEuNzcuODQyIDMuMDMgMS42OTUgMy43ODQgMi41NjNzMS4xMjUgMS45NSAxLjEyNSAzLjI0MXptMjAuMzctNC4zMDJjMCAyLjI0LS41MDcgNC4xODUtMS41MTkgNS44M3MtMi40MzggMi44MDEtNC4yNzcgMy40NjZsNS40OTEgNS4xMTNoLTUuNTQ0bC0zLjkyMS00LjQyM2MtMS42ODEtLjA2MS0zLjE5OC0uNTA5LTQuNTQ5LTEuMzQxcy0yLjM5NS0xLjk3Mi0zLjEyOS0zLjQyLTEuMTAzLTMuMDYyLTEuMTAzLTQuODQxYzAtMS45NzQuMzk4LTMuNzM0IDEuMTk0LTUuMjc5czEuOTE2LTIuNzM0IDMuMzYtMy41NjYgMy4wOTctMS4yNDggNC45NjUtMS4yNDhjMS43NDEgMCAzLjMwMi40MDMgNC42OCAxLjIwOXMyLjQ0NiAxLjk1MSAzLjIwOCAzLjQzOSAxLjE0NCAzLjE3NSAxLjE0NCA1LjA2em0tNC40ODguMjRjMC0xLjkzMS0uNDE4LTMuNDU1LTEuMjU1LTQuNTc2cy0xLjk4LTEuNjgxLTMuNDMzLTEuNjgxYy0xLjQ3OSAwLTIuNjYyLjU2Mi0zLjU1MiAxLjY4NXMtMS4zMzMgMi42MjEtMS4zMzMgNC40ODljMCAxLjg2LjQzNSAzLjM0NCAxLjMwNiA0LjQ1NXMyLjAyOCAxLjY2NiAzLjQ3MiAxLjY2NmMxLjQ3MSAwIDIuNjM2LS41MzggMy40OTktMS42MTNzMS4yOTYtMi41NSAxLjI5Ni00LjQyNnptMTguODkzIDkuNDE0SDQzLjk3MlYzNy41OTZoNC4yNjRWNTMuMTZoNy4wMXoiLz48L3N5bWJvbD48ZGVmcz48cGF0aCBkPSJNMjkuNTg5IDc5Ljk5OUgzMGMxNi41NjggMCAzMC00Ljg5MiAzMC0xMC45Mjl2LTU4LjE0SDI5LjU4OXY2OS4wN3oiIGlkPSJDIi8+PC9kZWZzPjwvc3ZnPg==;" vertex="1" parent="1">
          <mxGeometry x="1203.34" y="-70" width="75.32" height="100" as="geometry" />
        </mxCell>
        <mxCell id="DBKgGHqJrymTyB9l0VIw-28" style="edgeStyle=orthogonalEdgeStyle;rounded=0;orthogonalLoop=1;jettySize=auto;html=1;exitX=1;exitY=0.5;exitDx=0;exitDy=0;entryX=0.5;entryY=0;entryDx=0;entryDy=0;entryPerimeter=0;" edge="1" parent="1" source="DBKgGHqJrymTyB9l0VIw-25" target="DBKgGHqJrymTyB9l0VIw-17">
          <mxGeometry relative="1" as="geometry" />
        </mxCell>
        <mxCell id="DBKgGHqJrymTyB9l0VIw-25" value="" style="shape=image;verticalLabelPosition=bottom;labelBackgroundColor=default;verticalAlign=top;aspect=fixed;imageAspect=0;image=data:image/png,iVBORw0KGgoAAAANSUhEUgAAASoAAAEsCAYAAAB0Y/4yAAAAAXNSR0IArs4c6QAAAARnQU1BAACxjwv8YQUAAAAJcEhZcwAADsMAAA7DAcdvqGQAADjmSURBVHhe7Z0HnGRFtf8LlrhIUkB8KkEyioL4MMBTQAUfT1EEwx99GDAAPjGAYkDBp/hQREV9TzCAAcVFhQWWndA909M93TOb2F02EBbZyIbZmekcJ9X//OpWr8Nwd6a7p0PVvef7+ZzPLuzMjVW/e6rq1DmCYepKIPkHEUjdrP+LYRjGMALxs0XfiBRLJqQIJt+h/y/DMIwhhLIvFZHCc6J/TIoYiVWkMCy6kq/S/8owDNNi5sk9RSgTFY9JKbpSji2lv4dzq0Ro4AD9UwzDMC0kkPy1WAmRSkvRrQ1itYL+X3d6vv4phmGYFhFIfFEsJ0EKZf4pUpMNAhZM/kD/NMMwTJMJDF8o+kcxH0WiRB6Um1D15KRYBm8r9XH9WwzDME0ikDpB9BYSoo+ECsM8N5GC4d96i1LEiqOiLX6O/m2GYZgGEx18kYjk1qoJ8+lEqmz4mf5xEqz8gFgQP0ofhWEYpoGE0gvURHklIlU2/CyGgOHcctE3sZ8+EsMwTAMIJm9XE+RuYjSTQazUSmDqb/poDMMwdaYr8SkVK9WTfaEIVWNqJTDxfX1UhmGYOhFIvE3ESmNqYryaIZ+blVcCA/Er9NEZhmFmSUfiGNFbGFTbY2YrUjAcA4LXVxoRC+Nn67MwDMPUSMf2uSKcW1nxCl+lhmMtGkcM1g7yrF6pz8YwDFMDXakHq17hq9RwTAwBe7ASuJlXAhmGqQFsfal1ha9Sg1hBCEOZv+qzMgzDVAi2vChvZ5YrfJWasxJ4iz47wzDMDHTE/03ESqNqwnt3e/jqbbwSyDBMxbQljha9hZ11W+Gr1HCuKPYElkZUplCGYRhXsMLX04AVvkoN58RKYG9hh1iwjfcEMgzjQnfmgYat8FVqODfvCWQYxpWu1K0NX+Gr1CBWzp7Av+urYxjG9wSHPtnUFb5KDcIZSP6PvkqGYXxLZ/ytok+v8LVyyOdm5ZXAzgRnB2UY34I9fJE67uGrt+GaODsow/iYjgns4Xu8ZSt8lRquTWUHLQyItu1H66tnGMYXhDLzW77CV6nhGtUcWm4l/bm/vgOGYTxNV/o2Y1b4KjWIlbMn8EF9FwzDeJZA8tN1ydLZKnMElusEMoxn6Rg8z8nSWbBjyOdmEFgIbWfiSn1XDMN4hvaB40RvccjYFb5KDdfurASOqdAKhmE8AurwhXNrjF/hq9RwDxBcpEcOJI/Vd8kwjNWEMtXX4TPdcC8Q3nBulQgNHKDvlGEYK+lK/tS6Fb5KDWKl9gSmH9Z3yzCMdQST14jl1JFtXeGr1CDEweSP9F0zDGMNncMXiL4RVHnx1pDPzcorgcHkZ/TdMwxjPO2DJ4loMSH6Rr0vUjDcI0IuYqVx0Zk4Xz8FhmGMJZQ4WITzT4kl5GH4QaTKhnvFSmC0MCzak8fpp8EwjHlIQcOgTjUv5SeRKhvu2VkJXCOiEy/SD4VhGKPoSv3Ssyt8lRrECkLdnXlUPxWGYYwhkPiS6qAhj6/wVWrOSuBP9dNhGKblBOPvFovGpIjkqZP6cMjnZhBstRIYv0Y/JYZhWkbn8GtEtJARsRF/zkvt1uhZIDQDIRpdyXfqp8UwTNNZuO0wEcmt990KX6WGZ4IQjWghIdoGT9RPjWGYpnFT9xwa3oR9u8JXqeHZQMjD+SdV6AbDME2kO323mjDucumcbM83iJVaaEh36KfHMEzDCSa/rtPyundMNndTwp76hX6KDMM0jM7kZc5QJkedj4d8VRlWAuFZBePX6qfJMEzd6UyeKWLFvIiWeF6qJqNnhpXA/lEpOof/XT9VhmHqRufgy6iTbRGLJ1ikZmN4dlgJ7C2mRNvwqfrpMgwzax6d2Ef0ZBepAEYWqdkbniGGz5H8OtGePFQ/ZYZhZkVX+j7PpRJuteFZOiuBXeLGG/fQT5phmJoIpv7b2WjMK3wNMfVsU3fpp80wTNUE4v+pS5m/sIOx1ccQ4gFvtTNxnX7qDMNUTCB+toiVRlQNOx7yNdDo2YbzUiwaJ7GKv0c/fYZhZqQtcbToLQyozsMi1XjDM8am7mgxI4Lx0/RbYBhmt3Rsn0tDvZVqyMci1TzDs1Yrgbn1arM3wzDT0J1+iFf4WmR45ggBwWbveXJP/UYYhnkeweTtziqUSydia45hk7ez2ftu/VYYhtlF5/BV6mvu9WKhNlh5JTCQ/Jp+OwzDkCf1DhErOfvQeMhngNE7wEogtit1DF2q3xLD+Jiu1Imit+CfYqG2GN6FWgks5UQwcYZ+WwzjQxZsOkSEc/4rFmqL4Z3Aq4rkN4vQwEv1W2MYH0HaJELpgNWphDHxHKBr7yTrIGvXf0618v/HzwXJ3I5lquHdqLnDTJ9YKvfSb49hfEJX6k4rV/ggTmVhor+/qi8j37UyJ69+qiC/s6Eof76lJO/ZNiL/uN2xX20dkbdsLMnP0L+/7bGcPLw344gbfh9/up3DNMM9Y3K9O3WvfnsM4wO6Etc5O/ct2miMzqrF5exlOfnTzSW5OjMuR8ZlVSRHJ2RXfFR+eV1BvipG91/2tNzOaZSV9wTGv63fIsN4mGDivWLxuLOqZEsqYT28u3hlXkYSo1pyZk9+fELet2NEvnlp1gIPi64N6Z+XQqySH9Zvk2E8yMKdp4toMWtNsVB4Ue0peQIN7x4erJ9AuXEvDROPhYeF+Syc1+16Wm14Z0gDHSsWSVjP0m+VYTxEMHOEiBQ2isX0RbZBpDDpTV7OlU8UZIqGa80gQef59JMFx7syddId7w6bxXsLW8XCoZfrt8swHgCrReFszJpUwjQE24uE4q6tI1pCmstvt43IveFVmToUxDtUecIyS0X3hn31W2YYy+lO36v3j7k3fJOsMyUP6UnL7nhjh3oz0Z0YlQeH6HpMFiu1EpiZp98yw1hMIHWzE4ZgwQoficKhJFJL02NaLlpLf2pMHmiyWMHwbgOp7+m3zTAW0hn/qFolUsVCXRq5SUZDvX3J44smzRCpMl3xMTkH81VBl2s2wZAmGsPAjsTH9FtnGIvoGH6LiBVHrCgWiiFpR0r+eaA1c1IzcedWeoaYYHe79lYb3i3SRSNtNNJHM4w1dMWPEr2FHdakEm5PyWueLmpZMJMPrSk4oQtu199qwzvuVyuBAyqNNMMYj22phAMptQ0GwZcmMzwyIQ+PZMyeXFcrgVm8+/11a2AYQ7EtlXBnSj4y1NoVvkr59bYRc70qGN453n0o86BuDQxjIMG0XamESaTOeSynZcB84PSdujirrtv1fkwxtIFg+oe6VTCMQQTiV1uXSpg6fNuwHd5Umd9tJ6/K1In1sqENoC10Jj6lWwfDGEDn8AWijzqQTamEAyl58qKsnDB7auoF5Mcm5JHRjLlbbGBoA73UFmKlMdGROE+3EoZpIZ1DJ1OjTFqXSrg9pfJH2cjn1+n9gG73ZYqhLfSPIXRhSLQnj9OthWFaQPvmQ0U4t866VMKImyKPZHnGrODOSgklSABMjlYvG9qECvjNrhULhw7UrYZhmoiUe4hQtsvKVMLUyY/py8gmJUWoOzka/h2BTKGmRqtPNrQNtJHu9ELdchimiXSlfm3NRuOpRsOmS1bldbe3kwtX5sxf/ZtsaiUwdYduPQzTBALJG3S8jHujNN1IqL613s75qTI3/KNo/jzVZAtlHc8qmPycbkUM00CCiUtVCSWbUglPNerg92w3c19fpfwGwZ82CRXaClaFsegSGL5QtyaGaQCdyTNFrJhXVY1tm5eabDRketSSaPTdgeu3augHQ5uBUEWLSbVazDB1pzP3MtFb2KK8KZtFChZIqZUzm4nYsvI31dB2sEocyT8tepOH6NbFMHUA6WZ7skus2Wg8k1EH77FcqPqTJFQ2rPq5GdqQKpeWDqpCtAxTF7pT91u10XgmI6HqsGzrzFSs9agmm1o1Tt2pWxnDzIJg6vvORmNLV/jcrCMl7zM0SV6lIOODdXNUUw2rxvgABlNf1q2NYWogmPikk2PIglTC1RgJ1Q82lXSXtxOUirdr1c/N6PqxeowEi4HBi3WrY5gqaE+cqzaVIs2sV4Z8ZaMO/oknCrrL28l1z1gWR7U7Q9tCQdpoMSOC8dN062OYCujcebzaTIpNpV4TKVggJV+/NKu7vJ2cv8KyyPTpDG0MhWkj+fViYfow3QoZZhoC8YNEJLdWbSb1okjButJyv5603Foc193eLlC5+cW27PWr1NDWVD6zTER0yzm6NTLMbgil263caFyt0bDpzzvsnFBvH/bARLqbYd+os3/0Ht0aGcaFYOp/nRW+KQ3Ii0ZC9f7Vdm5M/uSTFuSjqtV2rQQmv65bJcNMoiv1RScIz6JUwrMxGjYdQMO/HSW7cr0kaNh3KKrReGnYN9WwErhkgrzG5GW6dTIM0Rl/j1oijli80bgWa0/JWzfaFaZwt3WbkWswTDtgPyn2lXYOnqlbKeNr2uOvFdFCVi0Re31eaqoFUvLlMfNr+k3mvOUeWu2bztAWsa80kt8i2nYeqVsr40s6MoeLSGGDWhr2m0iVjbyqO7faMamOVUqsVnp62DfZ0CbVSmC2X9wv99atlvEVS+Ve1ACiqiH4VaRg5FUd15+VIxY4VY+lsRGZ3pWNWVVrNbRNZ4HnT7rlMr4ilP6jpzYaz8Y6UvKPFiTSy4xNyH+hoar1m5GrNr0SGEjcrFsv4wu6UjepF++ljcazsc6UPGVRVtXMM51fPlei4WrS/T68bOGcU9EmEL9ct2LG03TEP+KUMPLYRuPZGIZS7SnZlzQ/RxWk9M3L6N15feVvqsHzj5JIR4sl0Tn0Rt2aGU/SMfwWESuV1AvnIZ9jmJimTv8/G0vWlM9aXxiXh2BS3W9DQLRZhNH0FraJ9uFX6FbNeIqu+FH0gneoF80i5RgmpmnY97Mt9qV8ebicj8pPE+swtF2VeiizTHTLfXXrZjxBx/a5oie30jOphOthWqRQzcVWbt5QVENW1/vzsqENOwtBf9UtnPEEocx8XuGbZDRk2oOEytZNyZN576q8P8UKC0EIWwgmbtGtnLGa7vTtvtloXImRSO1Ngj1/0O6c6WXSYxPy5P6s/ybXYcg8i1FCMPEx3doZK+lMXqUje91ftN+MRGou/Wl7YYepPJkblweGnPtzvW+vGkYIyEAbK46Ktvg5utUzVtE5fIHoG3Gq0/KQT81HHdyTlpEaQxC6E2MN9cKWp8fkVU8Uat7O8xBdm28n1/vVSuCACCWO1q2fsYL29En04pKqKi2LlOrAh4fTcimJQS38btuImtOCx1Kr0O2O54rj8jNPFuSeCJNoo3O0p+SVJFi1REp8fyOCQX34vtHGnSIkK9XCEWMBqD6LKrSoRssipeZuXtmbkWuytaUd/tazuogChISE6vBIRm6pUwrjX2wpycNIQJW4TPaE2pLy4sfzslTDaS5f69PJdbR1LBiFMg/qnsAYy41yDxHKBn2RSrgSI4E5sS8j/5Gvvscj+POKcqefLCJ0zLcsy8nZZIZZlR2T5z+Wc44NT23yNZeN/u1dK3NyZKK6ExXpwt6wxKeT6zC1Epj8oe4RjJF0p36lXpTf5incjDr66xZn5dYaMngOk0rtEpLdHPsr/yjqn66O2zaV5H44RiVCQud5D3lW1crsZvL4jkAWUMxZuR3Xy4aFIywgdSau1L2CMYpg4iva9XV/gX4y6uBnL8sqwamWdeR9ndpPz3B3IgXDh4BEoK2K1cNVmXH5tl1e1JTjTWftSfnhNdXndsdc2hycp5pzecEwklArgaUx0T54ru4djBF0Ji5R2RCRa9pPqYTdjITgwhU5mashE0KMOveR8EQq8XYCKXlEb0ZuKUzv72Ao9sNqvCg3a0vJzz5VfcHUX5fTFvtyJXAMK4FDYuHAq3QvYVpKx+DrRbSY82Uq4alGIvWB1fmaNhc/ODgq98cxqhkutSXlfz09vYDcQENEsTC5+7moSgxCQ/f2jWerH25+CRWVp/MOvWroC8gS0pNbLUIDB+jewrQE5JKOFDYrb8rPIqU78pVP1lam/f+Q4wnBktUGTJK38rEZSsN/ijyhmj2pyYZ7pOP8pIYN1Bet9PlKYFfmEd1jmKazRu6tckn7PZWwFqnrnqlNpJ4XfuB2/OmMfm8mcbx2nT6+2+9Xa7hG8vjuG6guKBSVlU/GvJsfJ9dhaoEp+WPdc5im0pW+z3kBPhYpdFwSge9uqG0F7tMo5AlPo9Y5nAqE6vP1FCoYDSExSd4dry7w9OncuIrMr9pr9ILtWglMflb3HqYpBFP/7Ww09vEKH+Z8yEOoJZcUymMhoHLWw6FWCBWMxAaiU20QqyoFD6Hy40ogtpLFSuOiM3G+7kVMQ+mIX6G3C9BLqHMHsMWos+1B9ocaCjIMlCbkm5fSF7YeczatEioYifTR0YzcVmWc2B0k7LPyIm01iFXfGFIZD9OzO173JqYhYId4rDRCD9u/Qz4SKCz1I8NltSBG6qS+CsMPKrFWChWMjoso9GoLqF79tB7yuh3Ty4Y+49QLeEIsHDpQ9yqmrnRsP4YEakDtFPerSJEXcSgNecI1bAxelKoiRqpSq0CorkN4QqOECkaCg+j1aoCsvX3FNJH3Xjb0HWwx604v1D2LqRv3DxxAX4HH1dfAryJFnf3lvRm5IlO9SC0g7+sAHKPeq14VCNX1jRYqGAnO52aI55pKfHRCHg/v0s8rgcHUHbqHMXWhO/Owr1MJU0c/mTrVszNEgbvxu+0jaj6rIatdpgiVDtFABHw1rM36NOEeLJR1PKtg/Brdy5hZ0ZX+sbPC5/Kw/WDUAc9akpU7athcjI6rPIbZRIVPZ6YIFQxiRfc6b6C6uTt4m84zmnI8zxvdM1YCkVyyY+idurcxNRFIXu3rVMIkUu9cnlN5wavl+vLWkUaublUgVA2fo5psJMj70P3GUtUNjxHt3vBnZaJhhILkkr2FhGgbPFH3OqYqOpNOKuFeUn2/Dfn0UOaDq/NypEqNwo9/bO0sAzkrtQqE6qvNFCoYeUdHRNKqSGk1XKVWAn1YKh59C0kmw7knRSB+kO59TEV0Dp0sosWEL1MJa5G6qoZsAciY8G61r61JHa4CobpxfZOFCkbne82ibFWeKH7yHX5fCQxl2nQPZGakffOhvk0lDJGiTlZLloABcr3qFshZqZkqVDB6DsgQWo1DmhidUBlRW3K9JpizJe3nuicyu+XGG/2bSlhvibl9c/VbYpBq+JSZkt01wkwWKhg9j2rzWKH0lm/3BJZXAruS/6V7JONKl09TCVOnQJUXhBJUy2PpMfkvvS3yAkwXKhiJVbVhC6h7qITKtyuBWAlNXqB7JfM8AqnrfZlKmLwoJKx7pIYtMcH4mDwIcUBYXp963GZYBUL1zVYLFT569Hz+trO65/u/yNGF6/bbRxMjGQgV5ojbB0/SvZNRdCTeJxaP+y+VMHUglIuK1rAlZt7AiNwbnaiVQ5QKhOqmVgsVjJ4R9kcuqbKu4Ref8f1K4FMilDhY91KfE0icTurtv1TC1HmPjWVUdHS1qIyc8KIaFchZqVUgVN/doD0Tt99vptHzwhC52pqE765HOhwbDX3R2RPYoXuqj1kw8FIRyW3yXSphavhnLM7WVMhzV8dvtUjBbBIqGF3H66vMtpAZm5Cn0bsy5h6abc6ewF/oHutDlsq9RDgb810qYRKp85fn1FJ4tXxxXZMCOSs124QKRs/vklXVZVvYUBiXh4cz/l4JDMQ/r3uuz+hO3+urjcYQF+oktUSbw++6olnR5tWYjUIFo+eIPYjVgHlENSdogifbVKP7xUpg/yi9x+F36d7rE7pSNymR8ksqYS1S1aYiATkaprx7paER07YKFd4HXdNdW6sLB/njDh/XCVR7AotJ0Z72yUpgIHm5zjLo/lC8ZroAw3dqKMAwRK7X2csM3tZRgVDdutFAoYLRe0H6m0C8urAFvEdeCfT6SmBg+E0iViyJKDVePwz5MKdBdmeVX26wqTAuT1tk+CRuBUKlUs2Yeg/0bg7pSasKNdVwxRN6GO52TC8b+qzaE+jllcBA/JWit7BdLPJJKuFOJ3YHFYirBdVVULjAaJGC2S5UMLq2k/ozVS1u4Eff+hh5uqa/n0aZsyfQgyuBfRP7kcv4mKoe4weRogZ8RI2BnH2pMRUEquKk3I5tknlBqGDkHSFzQjVrHBiWH+fXVMa7VgK9tiewO/N336zwUaNH2uCnqhxOgLZhndvclmVwrwgVjN4bb2Cu1Oh+yyuBgeSFupdbTlfqVt+kEqbG/m/LcnJntfEHxF8GRuQcLH3b1OgrEKrbbBEqvTL7oyqzV2AyHhvKfVnU1MkOmrR/T2AwcaWTStjQFT40TggDOlLZqLHu+jv+rZIGqBv5/1uTl6Uqa8wBTLY75yJzO76pRs9oJqFCJWf1LN1+3zTDe6ShXLXzindvqzFsodz+MHwst7ndGX6u2uM32iBW5ZXAgLQ0O2gwca6IlcZEb9G5IbcbbYVBDPDiqXHMJbf9NYuzqi7cp6jDXfdMUQUCYgjwvlV5ecaSrDwE80VlMXNrLLqhfbOGZHfg1rLHYeMXma7bU0IFo/c5l/6stizZLs9xJjHBv5eFifrFMX0ZedHKvPzCuqLKRXYPid69O0bk77ePqGf3FWqPaIsn9Ged38Xv4fdNES30bWdPYLvu+RbRnjyOBGpI9I85N+J2g802LTZH9mbklU8U5IM7R+VzFey121makJ3Do/L6dQV5ChoLhK7sdbVh0jxTdQqRMl8v5xM3pdFVa3TtnhMqGAnBUdFM1ZV/ds3HTfWM8X7R/tBu6IP05mU5+cONJbk8PSYr3e6JlcZVmXF5O53jTUtphKLbszFtx1kJ/JlWAAtAqehwbo0xxUK1B/VqEpk7nyupwpO1glHdouSYvGVDSX5kdV5+g4SmErFz4xry2lTDtVWkYF4VKhhdMwRlpMrXi+SH++Gd4t3C81HiRO1vUVZ9mJZVWSFnd4QTY/ISZHbQHr3rPTTTdtUJTFpSJxClonHBJogUNbaX0NDtDnKpa5jfbgi4jI+u1alDbBYpWAVCdYetQgWjd3Q5vatqQdbVi1fmaEjneE4Qp0Y1v674qHzDEhKJlrcnOv+uOoFJw+sEokS0CSt8+ouGiiwba6gu3Cgwknifl/IbVSBUuzJluv2+DUbv6tvra5t/bBYYJHwN0wjwrKYOO5tpcE5UdtBCXAR2nqBVwTAQ/KXC60nd3W6iWYYXRS/sZsMaV3ZsQhUT9YxIwSoQqruwommzUOGjR9ePDcmmc/8ADTtxzRgOTr2PZhnEylkJfEJNAxkF0j8g+AuuXytTCUOk6CVh5cQksD3D6M3FtZofhApG7Wpv6oC17DRoNpi7Unn0Wy1WKjtK+lGtEAawcOgU0VtIKZcPF+h24c0wLVIInDSJwZEJeWZ5DsHtum02vwgVjLx0VGA2aSphd0CsUNq+pcNAmFoJTP5EK0UL6U0eIiK5dS0vFqrd898a5kkNlCbk60zPgDAb85NQweg+Xrs4q4bxpnPfADkOmLNq5QR7D7V9BHx3Dn9WK0YLoPMLU4qFkrfyLcPmpJRIIde2Fz2pslUgVCrq3ktCTe8TAcI28MV1yJ3VwmcPXUDAd6w0LjoS52nlaDLB1F1GrPBRJ3j7ipx+NeawLjfuuN6t/KI12ioQql3bS9x+31ajzv+lZ8xeCQQIyTkFHn0r46wgVgj87i0MiUDyWK0eTaIzcZ2zwtfiVMLBtJwbSqvk+yZyDlb5WtlIGm0VCBUCID0nVHqqAaEXpoM4q5YPASFWTlbfVaJjYq5WkQYTiF+skt9FDCgWSl+2b9S4x64Z/BzBjj4f+nlSqGD0kZxDf9a6M6GZXITYvVa/A4iVUwl9vlaSBhKMnyZixYwRxUKpoRzQk1ZzQaaCRrwfloq9Ovzzs1DRO93LYG9+MotSNPRCuIIJ7RDTRcHkD7SiNICF2w4jL2p9y1f4ykaN/0NrzJ/UVJV2vdhRYRUI1T0eFqoXhavfuNwqzkbqZBOmIZDyCZl+OxMf18pSR7q754hwNmxUsVBq/H+2IFr4vnKJJbd7sN0qEKo/eHjo9+JIRg6bsol0Bn5tyuor9AMrgX2lEdGRfotWmDrRnb7bCd5yOXErDG43/fmPvPluN3JrH4icVtSwXe/FZqtAqP6CeB6PCtWR0Ywq+W4DCFTd25RpCIiVM8+9Q7QPv0KrzCwJJL+mJ8HcT9oKo/H2UX0ZYzIizMR5Kzy6+udzoXplLFNxPikTOBVxfa3cWjPZIFYYAoZzS8U9G/bValMjHUOXisUTdDADVvgmG3V6jLlt4cZndYI8t3ux2fwsVNThkXXTIp2S719t2HwpxErtCUz9RStODbTtPENESzkjVvimGj3s96+yIzoYIAe3Xz0qtZXDo0L1avJQbOIL6woGvgsaqUGsgslva+WpgmDmCBHJbVLelGkiBaOH/fEZOohJrM2Oyz0wN2DKHF+9rAKhQppmrwrVGUvs8eqBKkdv4rsI55zUMO3DH9QKVAF3Lt1L9GSjRq3wTTV62Fc/bY9QYWXokAh9Obw2oV6BUHnWm7Rs+gF8b6OhSQyhM1G6tmgxLwKJ07USzUAw+XujVvjcjB72tevM32tVBqE2R6OqLguVd4zu6cKV9kw/AOziMFKoYBCrxaQ74dxGFbM5LcHk141b4XMzetjXWORRYQX7OFSwMWXFpV5WgVA94OH5uQ9YEHA8GZSEM1aoYBArjOR6siFxo9xDq9IUAon3iyXlFT6Xg5hk9LA/MUMHMQnssnhFzJ8e1UMeFqpqS8C3mnfYEiajRnSpX2plmkRH4nU0PjRzhc/NqJFgqdUWkGjtZVF/CtXCIRIqr3mSMLr3mwwv+jAZlP06Ch9LG94FRnTIztIZ/5xWKGLRBOrwbVDjQxtECkZfBZsmMlOjE/IIjwoVhhPT4Vmhak+p7KW2sMaqlWdqL6i/gIR77YlzHaHqSrWJVSRSwaTLLxhq1PDxdai2OGSr8LJQzTRX+KgXhUrn53+8yrLvrcS6smVwmlTCvfyA6M8cIUR38nIa9o2I/nF7PCr6KiAXELJo2gCE6gAv7verQKhQDt9TQoV7IfuVRd4UQBZc6+YK4TytJSeqO73A8ao6E+eTWA0ZU4a9EqNO8vvtdjQWlIJH3JdoowfvpaDPCoSqK65zIbn9vm1G93t4OCMXkJdoE+vz43JvXL9NbQ86hL2AkcJzoid9jiNUAGWvoqUn1CSW2y+aZtRo3m3RNhrw5Wd0HEuryxjVyyoQqqAXhAodvD0l37E8Z0WivKncgCrKVmWazTjbaiKFxWJB/CitUJN4eOtLaEwYUMuDKpbK4JujxrMP/YmvhU2gpNdcXD8Ea/L92GgVCFXIdqGi4dIc+rB8b4M9K3yTUbsiyAu0YtoBXhS200Ckegt/FvM276eVyYVL5u0pIvlfqR9GTJXJQ0HqKJ+0KJ6qzMrMmDyzXErL5qFgBUIVS5JQ2Tg3p70ovCek8rWV623xpqAz0RFnz18od7NWowoIZ29Qm5JNjq2ixrQHfe1sbEjYVvNl1F2Dt2FrQGQFQoUy6NYJFb2PPeiav0Gd3JJMw66szY7JvSG4pn8MoS8Ij4qV8iKQvFwrUBV0JS8T0VLW6BgralQn9WdlzpJMi1PpGB6VJ2IfoI3eVQVC1Y/CAhAqG+4N10jv4fXkRcETtBn0hjcuJa+d3pHrvZpi0BVsm+ktbhAdQ2dp5amBzuSZIlpcb3Q2BWpcl1oUqT6VFIns554q2OddUSdANd7pWJq2RKjoXuZQ+/7Ws0VrMsdOh/lDPro2zINjPjxS6BFtO4/UijMLcJBIIfzPSXa3E7fY6KVcu86++arJwLs6FZuXbfGuqHNjJXM6jBcqXBs977cszckldK1e4Dfl6tSmPnM4PIg8R4RBT+7X4qbuOVpp6gDyVEXyd6uDmzjJrt32r1hQans6cuMT6h4w92a8d1WBUK3MIJCYftbETkPXjxXYH2wsqaGSF1Cpn+GZmxoCA93oo2tE1Hkoe51WlwYQSn/N2El2LVafn2HepFEEySP6Ep37Jho+zLbeW19yTL4JcwzwrkxtdNTRvzSDUD1uolDhedK1v2tFTq6t0+6Gv+wYkZ95oiBv2VCUi1u0uINoeeNFCkHlsVKcrvHdWlEaSCh9qaqYbOIkuxarD6zON62UEer7v3WZ3qIAYSE7IpJRX2pkTqgV/OZtm0ryQJQ5givvdr+tNLqm62cQKmyGNUaodNs4LJyRdz1X0lc4OzC0fTuKe+L96HcPsfjXJVk6x8is3n81YIVSXYOpIgVDyFO0uFq0DZ+qlaQJBBNnkDI+o4aCJn0ty0YN5rWLsnJJA79u24rj8kr6iqqv2FQhQYOhazg+lpG/pS/dbJor9jRe8rjuDDjX5PO00uh6vk7e43Q8SdeufrbVbQTPjT4kH6YP2OY61LjCEP1rJA6YgH/Bu8e96o/Wq+j9/2xzqWFltTYVxuVFK6ltQCBN7Id4Pj00MlCT5vmHxIMbDtYK0kQeevYIOnmXsZHs1Fj2opeHclXYGFwv0vSV/CF5S9j3NWMD0SKGwMH5O2e3RwzDi2ORhcGURlmBUEFk98TPtup6cV4IBj23vw3UZ29oVYseeP/0c/j5328bUfs+6wGOcyd5bPAOXyCUphhEClWRsWevJ/dDrRotApHs4eydyrPCTL6hQ8Fj6Mv2YxpG7ZzF3NGz+XH53+uL8qiyWFTjZuMLSw0K+8XCidq9vCQJ7pfXFeSeep7F9VzNMjo/8nBPB57ZnFZV6MUzJ6HAnGWiDh8qHOPqWsNI9AfrdfTBwlxSvMbrGaD2+ysSqNOxswHv3+T5qEUTKNpQov/+pFYLA+jJfEn0jzoz+qaJFUx/2Q6LZOQnnsjLv+8ckVtm8McRRIqcQ/+7paTc6/3Q4SBQOJbbOSoxNC76/Q/REGRVpvbxACZszy3PjczmemZjdO6bN0w/17OxMCH37aGfbaZQ6WE3vNieWXwUJvPw4Kg8Dhky8f5ncy9asI7szcgr1ublPeRlISgWm53xEcXePNgg2Wb6f9hu9Qid+1by4C9+PC9fjGpGrXznlRj6P7yoaGmLCMYnZT4whVDqP9SMPvbrmChWsLInQl/EudSBXr0oKy+iBvDxJwryc/TlRR7sD63Jy3NIBFSeczRK/fN162z6mNjecA2dD/MMtYKv65FovLPtQLUY3cNMQrWlOCH3b6ZQ0TXtR39iE3E9Rvvwoj6NeUjtnbmesxYrt0MY/X0f+ggeRMO4Q+ldwg4m26/83HBu/Bz+RNyX2/FMsXIQZ28hKtqHX6GVwUAwox8trbEiXQwaARpfuSFMNtUoyBrZwXBsEpiDqUEiIhpf0lpAKMRVT1JnwvXiut3O1Qij53QLfemnYztd24GYR2m0UGlP5cIVObk6W5+Za3gymAxv+EcAx4bh/U228v93+x3TDI4J4itVepbcPeKOR/fRimAwf9p0iIjkH1HKihl/U70rUwyNkjrDy2k48NNZrBBhA/A5CJNAx2rG0ICE4dZN0wvVIAlVQ9OMoCPT/b6UPJDf1CnrJhZelPBD9E0eYpli6N+xUSkWjaO/f1WrgEWEs7ersSpm/lmsZjZ0Cup0WCH64yyyl2I1qCnDQRKq20lYpwNDp5eQADdEqCAkZB9bm5dbSRDrQfvwqDzB1k3irTD0a0z1xEoJesfv1T3fQnpyn6abGLUqJ3urTQ9j3rw0q4oj1AJWh9RGZ3hrdCzX88zW6Lh3bJleqBB0e2S9C1toL+qUvmzd0gIjLuoLT9e4oudnwxRPb2GteHT4NbrHW0wwcy6J1TblXbFYVW7aY7hoRU5tqamFfvq98xu1OkjH/CV5b9OBdYK6Fl+lc84hoUKwZb1S+0QSY/I1Nm0Gb7WhD5eDOHsLD4sFmw7RPd0DLNhxrIgWF6vJNuREdnsAbO4GkSHP6CNr8nJtjRPFCDY8pt7BonRdM80LYeXtVeT5KM/O7RiVmp7Hw1YlbFupB9A5BAOrY7MXVZlBpMpBnOHsbbp3e4y7lu0vwrk/O2mO6SvP3lXlpoc7+9Lfr6UhykwxYG5gvuiGZ4rqGEr8Jh+/FqNjzDSXBp/n5EUkVLV6c7hvOs+hPWn58xmGmdWwnMTujUvYi6rK0F8RxBkzLYizUYQyN6kJOORIZrGqzrRgoeMiSh6R6tWC5fv3Pp7fNbR0PU8lRr97fwXbUl4HQahFqPR8EYJjN84i1mwqP9pUkvtqAXQ9L9sLDf3U6CDORhHKfIiU2ew0xyabHgphO8//kadRg17J+YOj8jR4O/AqahmakYggYnsm3lTOLOF2DDfTYowN3X+f5f7IyfwjPy4vWK7DN0wPnDTJJgdxPrz1lboH+wgnzfGzxmZgsMHgdVDHQ6aISrybqWBVH6lkXoxKzujA1bwHOjfq9s3E+dVU6aWfQ9JA7GdEiuZ6ga0q8ELZi6rC4EDsCuLM3y3uX7O37rk+JLjjCNGbDxqbgcEWgxBQJ8T+v+549V4I5rzUVhF4VpV0Zgga/SxWFWfifauosc90TO0hIiSj1hVON7Bn7vI1+vy1eI1+NYhUORNnT/Yrurf6nBvlHqTY/2dsBgabDB2SPJ0PkDggu2a1QCQqCmeAUJFVsl0F+yinFSr6N2wjQnaL+vlQUsWgHV1e6XQ7L5u7of85QZxx+vt7dC9ldtGduVb0jZCSk4qzWNVuEBHq/MjFhaDPWhLF3bt95J8R2m6eCB0bWREq2VCNLKCuQqUnyz9Ioop0MPUCWyavp6Gj8jKnE1s2d4PDEC00OROnbQSSF4poaVDlVmaxmp1BsEhoMDfz3fVFlfCvGpBG9/sbivIl5fmryYIVTMvDezMyXcEs/o82l54vVJjIpuOhnuEDdZwsBysyY/INHHZQvaGv9ZAnjSmYSH6+CMQP0j2S2S1tgyeSoq9wgkNdHipbdaaFAZkAatm4u7XoVMbB8EwJgPaETlmc1T8xPX8jMVLeDa6FBAtxXN98tlj3fOK/2FKS++Mc5XOxVWYQqSh9TOAchDK36l7IVMT8J19Eyv43JVZQevauZm8QGBKKs8jjWFjDHjkkcvs2CcxJ5AntSceptNrP08ibDvGg37l4Zb5uaVjK7KSx3mWYsJ/q9bHNbOhXKoizWKRn9zHd+5iqCeW+p5Qeis9iVR+DaJC9l0QDEdrVgtHe0yQ2hSoSgKOs1rw65SyfTGCYJ8xrNgyNUQE9Wtwo2offrHscUzNdqY+KWCnPwaF1NDRS8nCwwfe/nirIbXVKk9JMvrO+uGsY6nqPbLsxel7/DOLsEZ2DL9M9jZk1nUNvFL3FDeoLwGJVP9MT7oeH0yppnw0M0FDvP0wuEWWyoe+Uy6mH83fVt5w649C280j6AoQ4OLQBhrmdtpS8kASgHhVbGsUyGqruSg/sdh9suzeIFEJ/EAIUynxR9yqmIeALEM7dxcGhDbKFSflInZLR1RvU03sRKgHxUK96Qz9xyqkP0kfpXbo3MQ0HXwQODq2v0TAK1VBQusk0UPFaZTzgAM7aDKvnvcXlIrDzBN2DmKbROfzvIloc4uDQOllHSl66Oq+lwRwQaX4agjjp+lyvm83d0CeQ903lf8vfL+4fOED3HKbptA+eJHoLKzk4dJamvRUUwzSNx9LkNQf0NbpdO9sLDSKFfG/Ys9eT+47uLUxLmT/IwaGzNfJWkI7FRJDTXAmV23WzvdDQ/hHKg3xvXZkP617CGEMow8GhtVonckuZOYmOGC9VbZmT3VVmWGiKlZ4RnYNn6p7BGEcw9RERK3JwaDVGIvXaJZXt22sV51WTfM+XRs8mlHWCOKPFDvH37YfrHsEYS8fQWfSy1jvBoW4vle151p6SPzY82PN320Z4Mn13hg8yKsOgvUeyP9O9gLGCBQMvFZF8NweHzmAk5HvRn+vrmA+qEaCQ6RGq4jK/x+cZRArFfWPFMRFKX6VbP2MVl8zbkzOHzmA0nHrDUrOHfWU+i8rP7FX909Cencow20RX4jzd6hlr6cl8XsRKHBzqZtTxr3umqKXAbFDxhuepYHgG5F2qIM7CIvHQ9mN0S2espzt5gYgWd3Jw6BQjofprnbNsNgqkVEb6Y1/PO6LtlivDhHN/EPds2Fe3cMYzPLLzeBKrZRwcqg0dnmxNnRPZNQqkvzq+v8Zipl4wiFSMvMpF41jh+5pu1Ywn6dg+V0Ryf9FfJOfluzUKP1gwLQ+NZGTc4GwJU3kbCoj6cfiHdupUhkmIYOJ9ujUznieUc8rKx0b8K1bkmZy4KCvt8KccLltdQY1AL5pTGWaNeHT4NboFM76hO/NB+kJlfBscSp7Jvy41c9vM7rhiphqBXjK0SWwJcybN54sHEwfrlsv4jmDiDBEtrlNfLLfG4mUjoXorDaVswjdCBZEqV4YJc2UYBizcdpjozbc7waFZ/3hXJFSY87GJy9f6YOiH9qcqw5QKojt7hW6lDKMJZ3+qtiFgO4IfxIqE6qxldgnVvyNXupcn07ESizYYLW0QgdSbdMtkmCmE0p+lL9mo2pbgdbEKpORJi7LSpvozZyCBnifDE+ieypVhIsVuMX8TV4ZhZiCYOJfEaqvanuBlsSqHJyCFpgVgvx/KyHsu3QvaWLkyTE/2l2LevD11S2SYGWjbfrSIFvvUiova1OzSwGw3HfD5eMa8rJ5urKTrLF+z6/3YaBCpfrovbPHCVi+GqZpH1+0jwrnfOcGheadRuTU2m60jJX+3vf4VjBvBXVs9luoF7UltKi4OiK7kO3WrY5gaCWdvUNsWsH3Ba2JFHf8ja80r6ODGxau8suKHeyhvKi4uEe0Dx+mWxjCzpDt9sYiWEp7b1BxMq3mf7JjZ81Q7ShNyrhfSEaPtlDcV9+b+JO5atr9uYQxTJzqGXy2ihdWeCw61YPj33Q1F+6sjQ6TglS+eQLzejbpVMUwDeHDDwSKSn6+Wkb1S8SaQkidjz5+hTtXQyIQ8NEzXaXN2T7QTZ1NxSgQTl+rWxDANJpz7H09VvCFv5bZNZuZNV9tmbPem4IX3lp4Q7fHX6hbEME0ikLpCbXPwwqbmYFruS3+uzpoVqjBvgIZKmEC3MSQBbaJHV4bpzT8iFiQP0S2HYZpMYPhNIlrc4ImKN500BOzPypQhE+ursuPygBBdl41DPohUL3nbCD8IZ2/TrYVhWkjbziM9U/GGvJd3rMjJVmsV0g4fHaVnaeO+PoiUs6m4SH//hG4lDGMA2PYQyf9SzUXYXvGmPSUvWZVvmVhtKozLk/poyGRjzBS8arWpuLhJdAy/RbcOhjGM7sy1ajuE7RVvSKzeRZ5Vs4eBKzPj8hh4UtaJFF1veVNxb7FHPDL0L7pFMIyhdCYvILEasD44lMTq9EVZ+WSuOcmK/zowKg/CnJRtwz284/Km4nD+LtHdPUe3BIYxnPbkceT+64o3mLdyaeA2GHk2h/Sk5b0NDAhFVPwXnqaODoGyLYULRAqbivtGSKRyX9Bvn2Es4g8r59KX9j5nU7PFwaFYdSPB+tDqvPxHnUu//21gxJmPQpyUbaumeJ9OLN1OEUheqN86w1hKT/bbKtbK9oo3JFYH0tDshmeKcv0sBKs0PiEf2Dkqz31MZ+u0MhEeeclqv17hMfHozhP0m2YYy+nKfICGghm1jcJmscKmYPJ+5pJgXbYqL+/bMSKfK84sWpsL43I+idPnaYh3PDwoCJStoQf/rFT8F1UnkmE8RSBxuogWnvbEpmYM07AyR3ZAT1q+YWlW/ufagvz6s0X5/Y0l+Z0NRXntuoJ8L4nZqxdn5f7IfABhwu/YmkoYIgWvGN4xvGSG8SwPb32J6M23OZuaybOw2bsqG0SrLEJuBmGyPWof7wneMLziruQH9NtkGI8Tzv7EVxVvbDd4wdHSU2LhztP1G2QYn9CT/rToK42o7KEsVuYZ3kl5U3Ek/6h44LkX6zfHMD6jO/5WESs95/mKN7YZ3gW8XbyXnuzt+m0xjI9ZsO0o0VuIqZUk2zc1e8EgUmpTcXFEhNJX6rfEMIy4Y90+IlK4x1n29mjFGxsMz92ZO9wiOuL/pt8OwzDPozv7VWdLhgcr3hht9KzhzeJDES1GRPtzr9BvhGEYVwLxi0WsFPdcxRtTDc9416bi3G/EnUv30m+CYZhpaRs+VVW8wRferXOx1ccgUkjJ008ebHfmy/rpMwxTMYH4QZ6reGOS4XmqTcXFIdE5fJF+6gzD1ITXKt6YYmo+qrBCdA2eqJ80wzCzottDFW9aaXh2SLkDkeot3C9+8+SL9BNmGKYuqIo3JV3xhsWqasMzi444e/Z6ct/RT5VhmLrTOfgy8gRCnqh400yDSMEbjZayoiv5Yf00GYZpGDd1zxHh/J2eqHjTLHM2Fa8THcnX66fIMExTCGW+oHJ1217xplGGZxLSm4p7i+1i4bbD9JNjGKaphJIXimhxkINDpxieBTYVYz6vJ3uHfloMw7SMwM4TRG9hOQeHaoNI9Y9jU/GoCKU/q58SwzAt5/6BA0is5imxsrnizWwN943ULNHiVhFIvE0/HYZhjALL7iplruUVb6o2utfypuLeYkwsiB+lnwjDMEaC5fdYKeub4FDcY7kyDFLlIGUOwzAW0Jk8k8TqGU9UvJnOIFJIiYPUON3pr+q7ZxjGGjq2Hy4i+U4nONQjFW8mG+4Hq51IidMVf4++a4Zh7EOiUvPP1TJ9xGMVb5z9eqtEcOgUfbMMw1hNd+YaES2Oq2V7m8UK146UN0qk8g+I+589SN8hwzCeIJB8u4iWtltb8QbXjFQ3GO715G7Rd8UwjOcIJI+l4dIS5ZF0Y1OziyCYaBAprGLGSnn6+0f13TAM41nmbd5PhHN/UmJlS8UbzLFFS8+KjqGz9F0wDOMLQtkbxWLUrzM1OJSuadem4nxQLBh4qb5yhmF8RVfyMhpOpVU0u0lihWtBCht4Ur35X4gbb9xDXzHDML6kI/E6ES08ZUxwKEQKq5PR0rgIZT6nr5JhGN/z8NaXkOeysOXBoTivs6l4h1qlZBiGeQHh7E+c4VYrgkN3bSperFYnGYZhdkt3+jMiVhptWnAozrFrU3HuXrUqyTAMMyPBxLk0/NrW8OBQHDs2KtXqYzj7TX12hmGYCmlLHE1i1d+w4FCIFFYbY6UU/ff79VkZhmGq5J4N+9Jw7I8NCQ7FKmNv4UnRHn+tPhvDMMws6Ml+oy7BofjdnnIQZ+ER0b75UH0GhmGYOhBMXEpDwdqDQ/E7WE3EvFc4d5s+KsMwTJ2pNTgUIrWIPLJoqUT//Ul9NIZhmAbxQOrFIpJvqzg4FP+O2KxoabMIxs/RR2EYhmkC4exPZwwORWUYZz6qV7Q/9wr9mwzDME2kO3m1iJXGXhAcir9H8s7KXjj/W3Hn0r30bzAMw7QAJ3Pojl3BobByZZhQ9nr9UwzDMC2mfeA4GgI+pjwoDAdjpWERiF+s/5VhGMYQUPgzkruPvKuHxIM8H8XUCyH+P00q7/Tl29/bAAAAAElFTkSuQmCC;" vertex="1" parent="1">
          <mxGeometry x="827" y="-85" width="129.13" height="130" as="geometry" />
        </mxCell>
        <mxCell id="DBKgGHqJrymTyB9l0VIw-30" value="" style="curved=1;endArrow=classic;html=1;rounded=0;entryX=0.75;entryY=1;entryDx=0;entryDy=0;exitX=0.5;exitY=1;exitDx=0;exitDy=0;exitPerimeter=0;" edge="1" parent="1" source="DBKgGHqJrymTyB9l0VIw-17" target="DBKgGHqJrymTyB9l0VIw-4">
          <mxGeometry width="50" height="50" relative="1" as="geometry">
            <mxPoint x="490" y="170" as="sourcePoint" />
            <mxPoint x="540" y="120" as="targetPoint" />
            <Array as="points">
              <mxPoint x="540" y="350" />
              <mxPoint x="340" y="170" />
            </Array>
          </mxGeometry>
        </mxCell>
        <mxCell id="DBKgGHqJrymTyB9l0VIw-33" style="edgeStyle=orthogonalEdgeStyle;rounded=0;orthogonalLoop=1;jettySize=auto;html=1;exitX=0.5;exitY=0;exitDx=0;exitDy=0;" edge="1" parent="1" source="DBKgGHqJrymTyB9l0VIw-31" target="DBKgGHqJrymTyB9l0VIw-4">
          <mxGeometry relative="1" as="geometry" />
        </mxCell>
        <mxCell id="DBKgGHqJrymTyB9l0VIw-31" value="" style="shape=actor;whiteSpace=wrap;html=1;" vertex="1" parent="1">
          <mxGeometry x="-420" y="180" width="40" height="60" as="geometry" />
        </mxCell>
        <mxCell id="DBKgGHqJrymTyB9l0VIw-35" value="" style="shape=actor;whiteSpace=wrap;html=1;" vertex="1" parent="1">
          <mxGeometry x="-360" y="180" width="40" height="60" as="geometry" />
        </mxCell>
        <mxCell id="DBKgGHqJrymTyB9l0VIw-36" value="" style="shape=actor;whiteSpace=wrap;html=1;" vertex="1" parent="1">
          <mxGeometry x="-470" y="260" width="40" height="60" as="geometry" />
        </mxCell>
        <mxCell id="DBKgGHqJrymTyB9l0VIw-37" value="" style="shape=actor;whiteSpace=wrap;html=1;" vertex="1" parent="1">
          <mxGeometry x="-390" y="260" width="40" height="60" as="geometry" />
        </mxCell>
        <mxCell id="DBKgGHqJrymTyB9l0VIw-38" value="" style="shape=actor;whiteSpace=wrap;html=1;" vertex="1" parent="1">
          <mxGeometry x="-310" y="260" width="40" height="60" as="geometry" />
        </mxCell>
      </root>
    </mxGraphModel>
  </diagram>
</mxfile>
